<svg xmlns="http://www.w3.org/2000/svg" viewBox="0 0 800 500" width="800" height="500">
  <defs>
    <linearGradient id="ht-canvas-bg" x1="0%" y1="0%" x2="100%" y2="100%">
      <stop offset="0%" stop-color="#100F15" />
      <stop offset="100%" stop-color="#171420" />
    </linearGradient>
    <linearGradient id="flame-grad-ht" x1="0%" y1="0%" x2="100%" y2="100%">
      <stop offset="0%" stop-color="#FF6B4A" />
      <stop offset="100%" stop-color="#EA580C" />
    </linearGradient>
  </defs>

  <!-- Complete Full-Bleed Background -->
  <rect x="0" y="0" width="800" height="500" fill="url(#ht-canvas-bg)" />

  <!-- ━━━━━━━━ TOP HEADER BAR (Edge-to-Edge 0 to 800) ━━━━━━━━ -->
  <rect x="0" y="0" width="800" height="52" fill="#1C1826" />
  <line x1="0" y1="52" x2="800" y2="52" stroke="#2B2438" stroke-width="1.5" />

  <!-- Window Controls -->
  <circle cx="28" cy="26" r="5" fill="#EF4444" opacity="0.85" />
  <circle cx="44" cy="26" r="5" fill="#F59E0B" opacity="0.85" />
  <circle cx="60" cy="26" r="5" fill="#10B981" opacity="0.85" />

  <!-- Domain Search Bar -->
  <rect x="150" y="12" width="340" height="28" rx="8" fill="#100F15" stroke="#2B2438" stroke-width="1" />
  <text x="210" y="30" fill="#94918C" font-size="11" font-family="monospace">habitflowweb.vercel.app</text>

  <!-- Status Badge -->
  <rect x="660" y="12" width="115" height="28" rx="8" fill="#10B981" fill-opacity="0.15" stroke="#10B981" stroke-opacity="0.3" stroke-width="1" />
  <text x="680" y="30" fill="#10B981" font-size="11" font-family="system-ui, sans-serif" font-weight="bold">● ACTIVE</text>

  <!-- ━━━━━━━━ METRICS ROW (3 Distinct Equal Cards, 0 to 752) ━━━━━━━━ -->
  <g transform="translate(24, 68)">
    <!-- Card 1: Streak -->
    <g transform="translate(0, 0)">
      <rect x="0" y="0" width="236" height="68" rx="12" fill="#181522" stroke="#2D253A" stroke-width="1" />
      <text x="16" y="24" fill="#94918C" font-size="11" font-family="system-ui, sans-serif">Active Consistency</text>
      <text x="16" y="52" fill="#F59E0B" font-size="20" font-family="system-ui, sans-serif" font-weight="extrabold">28 Days Streak</text>
    </g>

    <!-- Card 2: Completion Rate -->
    <g transform="translate(254, 0)">
      <rect x="0" y="0" width="236" height="68" rx="12" fill="#181522" stroke="#2D253A" stroke-width="1" />
      <text x="16" y="24" fill="#94918C" font-size="11" font-family="system-ui, sans-serif">Daily Completion Rate</text>
      <text x="16" y="52" fill="#FF6B4A" font-size="20" font-family="system-ui, sans-serif" font-weight="extrabold">96.4% Goal Met</text>
    </g>

    <!-- Card 3: Monthly Target -->
    <g transform="translate(508, 0)">
      <rect x="0" y="0" width="244" height="68" rx="12" fill="#181522" stroke="#2D253A" stroke-width="1" />
      <text x="16" y="24" fill="#94918C" font-size="11" font-family="system-ui, sans-serif">Monthly Milestones</text>
      <text x="16" y="52" fill="#10B981" font-size="20" font-family="system-ui, sans-serif" font-weight="extrabold">18 / 20 Habits</text>
    </g>
  </g>

  <!-- ━━━━━━━━ MAIN CONTENT SPLIT (150 to 480) ━━━━━━━━ -->
  <!-- Left Side: Annual Activity Heatmap (0 to 480) -->
  <g transform="translate(24, 150)">
    <rect x="0" y="0" width="480" height="325" rx="16" fill="#15121E" stroke="#2D253A" stroke-width="1" />
    
    <text x="20" y="30" fill="#F4F3F1" font-size="13" font-family="system-ui, sans-serif" font-weight="bold">
      Annual Activity &amp; Habit Consistency
    </text>
    <text x="360" y="30" fill="#94918C" font-size="11" font-family="monospace">
      842 Total Logs
    </text>

    <!-- Month Labels -->
    <g transform="translate(24, 52)" fill="#94918C" font-size="9" font-family="monospace">
      <text x="0" y="0">Jan</text>
      <text x="70" y="0">Feb</text>
      <text x="140" y="0">Mar</text>
      <text x="210" y="0">Apr</text>
      <text x="280" y="0">May</text>
      <text x="350" y="0">Jun</text>
    </g>

    <!-- Dense Heatmap Matrix -->
    <g transform="translate(24, 66)">
      <!-- Row 1 -->
      <g>
        <rect x="0" y="0" width="16" height="16" rx="3" fill="#FF6B4A" />
        <rect x="20" y="0" width="16" height="16" rx="3" fill="#EA580C" />
        <rect x="40" y="0" width="16" height="16" rx="3" fill="#FF6B4A" />
        <rect x="60" y="0" width="16" height="16" rx="3" fill="#FF6B4A" />
        <rect x="80" y="0" width="16" height="16" rx="3" fill="#2E283A" />
        <rect x="100" y="0" width="16" height="16" rx="3" fill="#FF6B4A" />
        <rect x="120" y="0" width="16" height="16" rx="3" fill="#F59E0B" />
        <rect x="140" y="0" width="16" height="16" rx="3" fill="#FF6B4A" />
        <rect x="160" y="0" width="16" height="16" rx="3" fill="#FF6B4A" />
        <rect x="180" y="0" width="16" height="16" rx="3" fill="#EA580C" />
        <rect x="200" y="0" width="16" height="16" rx="3" fill="#FF6B4A" />
        <rect x="220" y="0" width="16" height="16" rx="3" fill="#FF6B4A" />
        <rect x="240" y="0" width="16" height="16" rx="3" fill="#2E283A" />
        <rect x="260" y="0" width="16" height="16" rx="3" fill="#FF6B4A" />
        <rect x="280" y="0" width="16" height="16" rx="3" fill="#EA580C" />
        <rect x="300" y="0" width="16" height="16" rx="3" fill="#FF6B4A" />
        <rect x="320" y="0" width="16" height="16" rx="3" fill="#FF6B4A" />
        <rect x="340" y="0" width="16" height="16" rx="3" fill="#FF6B4A" />
        <rect x="360" y="0" width="16" height="16" rx="3" fill="#F59E0B" />
        <rect x="380" y="0" width="16" height="16" rx="3" fill="#FF6B4A" />
        <rect x="400" y="0" width="16" height="16" rx="3" fill="#FF6B4A" />
      </g>

      <!-- Row 2 -->
      <g transform="translate(0, 20)">
        <rect x="0" y="0" width="16" height="16" rx="3" fill="#FF6B4A" />
        <rect x="20" y="0" width="16" height="16" rx="3" fill="#FF6B4A" />
        <rect x="40" y="0" width="16" height="16" rx="3" fill="#EA580C" />
        <rect x="60" y="0" width="16" height="16" rx="3" fill="#FF6B4A" />
        <rect x="80" y="0" width="16" height="16" rx="3" fill="#FF6B4A" />
        <rect x="100" y="0" width="16" height="16" rx="3" fill="#FF6B4A" />
        <rect x="120" y="0" width="16" height="16" rx="3" fill="#2E283A" />
        <rect x="140" y="0" width="16" height="16" rx="3" fill="#FF6B4A" />
        <rect x="160" y="0" width="16" height="16" rx="3" fill="#F59E0B" />
        <rect x="180" y="0" width="16" height="16" rx="3" fill="#FF6B4A" />
        <rect x="200" y="0" width="16" height="16" rx="3" fill="#FF6B4A" />
        <rect x="220" y="0" width="16" height="16" rx="3" fill="#EA580C" />
        <rect x="240" y="0" width="16" height="16" rx="3" fill="#FF6B4A" />
        <rect x="260" y="0" width="16" height="16" rx="3" fill="#FF6B4A" />
        <rect x="280" y="0" width="16" height="16" rx="3" fill="#FF6B4A" />
        <rect x="300" y="0" width="16" height="16" rx="3" fill="#F59E0B" />
        <rect x="320" y="0" width="16" height="16" rx="3" fill="#FF6B4A" />
        <rect x="340" y="0" width="16" height="16" rx="3" fill="#2E283A" />
        <rect x="360" y="0" width="16" height="16" rx="3" fill="#FF6B4A" />
        <rect x="380" y="0" width="16" height="16" rx="3" fill="#EA580C" />
        <rect x="400" y="0" width="16" height="16" rx="3" fill="#FF6B4A" />
      </g>

      <!-- Row 3 -->
      <g transform="translate(0, 40)">
        <rect x="0" y="0" width="16" height="16" rx="3" fill="#FF6B4A" />
        <rect x="20" y="0" width="16" height="16" rx="3" fill="#EA580C" />
        <rect x="40" y="0" width="16" height="16" rx="3" fill="#FF6B4A" />
        <rect x="60" y="0" width="16" height="16" rx="3" fill="#FF6B4A" />
        <rect x="80" y="0" width="16" height="16" rx="3" fill="#F59E0B" />
        <rect x="100" y="0" width="16" height="16" rx="3" fill="#FF6B4A" />
        <rect x="120" y="0" width="16" height="16" rx="3" fill="#FF6B4A" />
        <rect x="140" y="0" width="16" height="16" rx="3" fill="#EA580C" />
        <rect x="160" y="0" width="16" height="16" rx="3" fill="#2E283A" />
        <rect x="180" y="0" width="16" height="16" rx="3" fill="#FF6B4A" />
        <rect x="200" y="0" width="16" height="16" rx="3" fill="#F59E0B" />
        <rect x="220" y="0" width="16" height="16" rx="3" fill="#FF6B4A" />
        <rect x="240" y="0" width="16" height="16" rx="3" fill="#FF6B4A" />
        <rect x="260" y="0" width="16" height="16" rx="3" fill="#EA580C" />
        <rect x="280" y="0" width="16" height="16" rx="3" fill="#FF6B4A" />
        <rect x="300" y="0" width="16" height="16" rx="3" fill="#FF6B4A" />
        <rect x="320" y="0" width="16" height="16" rx="3" fill="#2E283A" />
        <rect x="340" y="0" width="16" height="16" rx="3" fill="#FF6B4A" />
        <rect x="360" y="0" width="16" height="16" rx="3" fill="#EA580C" />
        <rect x="380" y="0" width="16" height="16" rx="3" fill="#FF6B4A" />
        <rect x="400" y="0" width="16" height="16" rx="3" fill="#FF6B4A" />
      </g>

      <!-- Row 4 -->
      <g transform="translate(0, 60)">
        <rect x="0" y="0" width="16" height="16" rx="3" fill="#FF6B4A" />
        <rect x="20" y="0" width="16" height="16" rx="3" fill="#FF6B4A" />
        <rect x="40" y="0" width="16" height="16" rx="3" fill="#EA580C" />
        <rect x="60" y="0" width="16" height="16" rx="3" fill="#FF6B4A" />
        <rect x="80" y="0" width="16" height="16" rx="3" fill="#FF6B4A" />
        <rect x="100" y="0" width="16" height="16" rx="3" fill="#FF6B4A" />
        <rect x="120" y="0" width="16" height="16" rx="3" fill="#2E283A" />
        <rect x="140" y="0" width="16" height="16" rx="3" fill="#FF6B4A" />
        <rect x="160" y="0" width="16" height="16" rx="3" fill="#F59E0B" />
        <rect x="180" y="0" width="16" height="16" rx="3" fill="#FF6B4A" />
        <rect x="200" y="0" width="16" height="16" rx="3" fill="#FF6B4A" />
        <rect x="220" y="0" width="16" height="16" rx="3" fill="#EA580C" />
        <rect x="240" y="0" width="16" height="16" rx="3" fill="#FF6B4A" />
        <rect x="260" y="0" width="16" height="16" rx="3" fill="#FF6B4A" />
        <rect x="280" y="0" width="16" height="16" rx="3" fill="#FF6B4A" />
        <rect x="300" y="0" width="16" height="16" rx="3" fill="#F59E0B" />
        <rect x="320" y="0" width="16" height="16" rx="3" fill="#FF6B4A" />
        <rect x="340" y="0" width="16" height="16" rx="3" fill="#2E283A" />
        <rect x="360" y="0" width="16" height="16" rx="3" fill="#FF6B4A" />
        <rect x="380" y="0" width="16" height="16" rx="3" fill="#EA580C" />
        <rect x="400" y="0" width="16" height="16" rx="3" fill="#FF6B4A" />
      </g>
    </g>

    <!-- Heatmap Legend -->
    <g transform="translate(24, 170)" fill="#94918C" font-size="10" font-family="system-ui, sans-serif">
      <text x="0" y="12">Less</text>
      <rect x="35" y="2" width="12" height="12" rx="3" fill="#2E283A" />
      <rect x="52" y="2" width="12" height="12" rx="3" fill="#F59E0B" />
      <rect x="69" y="2" width="12" height="12" rx="3" fill="#EA580C" />
      <rect x="86" y="2" width="12" height="12" rx="3" fill="#FF6B4A" />
      <text x="105" y="12">More Activity</text>
    </g>
  </g>

  <!-- Right Side: Today's Active Habits Checklist (516 to 776) -->
  <g transform="translate(516, 150)">
    <rect x="0" y="0" width="260" height="325" rx="16" fill="#15121E" stroke="#2D253A" stroke-width="1" />
    
    <text x="16" y="30" fill="#F4F3F1" font-size="13" font-family="system-ui, sans-serif" font-weight="bold">
      Today's Action Items
    </text>

    <!-- Habits List -->
    <g transform="translate(16, 48)">
      <!-- Item 1 -->
      <rect x="0" y="0" width="228" height="52" rx="10" fill="#1C1826" stroke="#2E263E" stroke-width="1" />
      <circle cx="20" cy="26" r="8" fill="#10B981" />
      <text x="16" y="30" fill="#FFFFFF" font-size="11" font-family="system-ui, sans-serif" font-weight="bold">✓</text>
      <text x="38" y="24" fill="#F4F3F1" font-size="11" font-family="system-ui, sans-serif" font-weight="bold">Morning 5km Run</text>
      <text x="38" y="40" fill="#94918C" font-size="9" font-family="system-ui, sans-serif">Completed at 06:30 AM</text>

      <!-- Item 2 -->
      <rect x="0" y="60" width="228" height="52" rx="10" fill="#1C1826" stroke="#2E263E" stroke-width="1" />
      <circle cx="20" cy="86" r="8" fill="#10B981" />
      <text x="16" y="90" fill="#FFFFFF" font-size="11" font-family="system-ui, sans-serif" font-weight="bold">✓</text>
      <text x="38" y="84" fill="#F4F3F1" font-size="11" font-family="system-ui, sans-serif" font-weight="bold">Read AI Research Papers</text>
      <text x="38" y="100" fill="#94918C" font-size="9" font-family="system-ui, sans-serif">Completed at 09:15 AM</text>

      <!-- Item 3 -->
      <rect x="0" y="120" width="228" height="52" rx="10" fill="#1C1826" stroke="#2E263E" stroke-width="1" />
      <circle cx="20" cy="146" r="8" fill="#10B981" />
      <text x="16" y="150" fill="#FFFFFF" font-size="11" font-family="system-ui, sans-serif" font-weight="bold">✓</text>
      <text x="38" y="144" fill="#F4F3F1" font-size="11" font-family="system-ui, sans-serif" font-weight="bold">Daily LeetCode Problem</text>
      <text x="38" y="160" fill="#94918C" font-size="9" font-family="system-ui, sans-serif">Completed at 02:00 PM</text>

      <!-- Item 4 -->
      <rect x="0" y="180" width="228" height="52" rx="10" fill="#1C1826" stroke="#2E263E" stroke-width="1" />
      <circle cx="20" cy="206" r="8" fill="#2E283A" stroke="#FF6B4A" stroke-width="1.5" />
      <text x="38" y="204" fill="#F4F3F1" font-size="11" font-family="system-ui, sans-serif" font-weight="bold">Drink 3L Hydration</text>
      <text x="38" y="220" fill="#FF6B4A" font-size="9" font-family="system-ui, sans-serif">In progress (2.2L / 3L)</text>
    </g>
  </g>

  <!-- Complete Outer Border Frame -->
  <rect x="0" y="0" width="800" height="500" fill="none" stroke="#2B2438" stroke-width="2" />
</svg>
